<?xml version="1.0" encoding="UTF-8" standalone="no"?>
<svg width="100px" height="48px" viewBox="0 0 100 48" version="1.1" xmlns="http://www.w3.org/2000/svg" xmlns:xlink="http://www.w3.org/1999/xlink" xmlns:sketch="http://www.bohemiancoding.com/sketch/ns">
    <!-- Generator: Sketch 3.3.3 (12072) - http://www.bohemiancoding.com/sketch -->
    <title>logo</title>
    <desc>Created with Sketch.</desc>
    <defs></defs>
    <g id="Page-1" stroke="none" stroke-width="1" fill="none" fill-rule="evenodd" sketch:type="MSPage">
        <g id="logo" sketch:type="MSArtboardGroup" fill="#0099CC">
            <path d="M0,10.8779578 L0,0 L100,0 L100,11 L0,11 L0,10.8779578 Z M0,47.8776639 L0,37 L100,37 L100,48 L0,48 L0,47.8776639 Z M99.2883785,21.2917511 C98.7295135,20.5537997 97.8804308,20.1478095 96.8974166,20.1478095 C95.0586526,20.1478095 93.5189305,21.1974616 91.7480146,23.6567801 C90.2412361,25.7504347 88.3659988,28.3554733 86.9927596,28.3554733 C86.6633233,28.3554733 86.4184032,28.2477417 86.2438804,28.0252653 C85.8207117,27.4866076 85.8240453,26.2951317 86.2550577,24.5792193 C86.7435254,22.6361551 87.6800655,21.2792831 88.5332661,21.2792831 C89.1482137,21.2792831 89.3747011,21.6225434 89.4560797,21.8337207 C89.2025315,21.8161875 88.9242755,21.8950867 88.7019061,22.0575607 C88.4081588,22.272829 88.2465782,22.6077125 88.2465782,23.0010398 C88.2465782,23.3528719 88.3703128,23.6692481 88.5946432,23.8923089 C88.8119143,24.1081617 89.1052694,24.222322 89.4423532,24.222322 C90.2990835,24.222322 90.8981476,23.5133978 90.8981476,22.4982276 C90.8981476,21.8526175 90.654404,21.2405153 90.2308432,20.8193297 C89.764534,20.3570386 89.1064459,20.1220942 88.2734429,20.1220942 C86.2305461,20.1220942 84.4329616,21.8586567 83.5430916,22.893503 C82.5438017,24.0561466 81.4009718,25.2150888 80.8393614,25.7742019 C81.3831273,23.9760785 81.2646871,22.2958169 80.4969831,21.2103193 C80.0079271,20.5181489 79.2812065,20.1372896 78.4519292,20.1372896 C77.1914435,20.1372896 76.3523616,20.7006886 75.9240945,21.0873923 L76.1348944,20.3067769 L71.8306532,20.3067769 L71.5729871,21.3531172 L72.7736644,21.3531172 C72.2157799,23.1656567 70.6886077,24.8359828 69.9605144,25.5573751 C70.0507171,25.2696364 70.1448418,24.8640359 70.1879822,24.3355084 C70.2975982,22.989351 69.9475722,21.771965 69.2263422,20.9952458 C68.7047348,20.4337949 68.0321359,20.1372896 67.2807075,20.1372896 C65.128783,20.1372896 63.2602129,21.4339645 61.727354,23.9914687 L61.2645745,24.7841625 C60.2725401,26.5053348 59.2463854,28.2847562 57.5821442,28.2847562 C57.1248553,28.2847562 56.7563966,28.1059179 56.4867687,27.7521376 C55.8008354,26.8530759 55.7651465,24.8272162 56.3959777,22.5895949 C57.1915269,19.7688984 58.8961633,16.9135252 60.616095,16.9135252 C60.9065087,16.9135252 61.1457421,17.024179 61.3483062,17.2515257 C62.0083552,17.9922044 62.0428676,19.769288 61.957175,20.4659391 L61.9407031,20.5989963 L63.1949139,20.5989963 L64.5071682,15.8636783 L63.3092361,15.8636783 L63.2735472,15.9121867 L62.783903,16.5788366 C62.5052549,16.248239 61.6322489,15.4385965 59.7595608,15.4385965 C57.6237159,15.4385965 53.8718687,17.7151804 52.6037353,22.6020629 C51.9893759,24.9688452 52.2570429,27.0502266 53.3579089,28.4612567 C54.1434575,29.4684395 55.3015827,30.0456703 56.5365763,30.0456703 C58.6263394,30.0456703 60.4902033,28.4667114 61.2820268,27.2239997 C61.404781,28.0749426 61.9538414,30.0462547 64.3999054,30.0462547 C66.5935977,30.0462547 69.158494,28.3956047 71.8369282,25.2680779 L69.7644214,33.3333333 L72.8650438,33.3333333 L73.8861,29.1766098 C74.1421974,29.5048696 74.7393006,30.0462547 75.9099758,30.0462547 C77.5659811,30.0462547 80.3167736,28.1598811 82.6996957,25.4171098 C82.371436,26.7858654 82.559097,28.0186417 83.2375787,28.9126382 C83.7835016,29.6313032 84.5923852,30.0429429 85.4575475,30.0429429 C88.3338395,30.0429429 90.3469302,27.6533674 91.0267846,26.7139795 C91.0130581,27.5849881 91.2970008,28.4061246 91.8356682,29.0164735 C92.4200253,29.6788375 93.2638135,30.0429429 94.2115309,30.0429429 C96.7334829,30.0429429 98.9348228,28.2968346 99.6886043,25.6986145 C100.213741,23.8905556 100.070986,22.3258181 99.2883785,21.2917511 Z M67.726623,25.3212618 C67.309141,26.9370403 66.3651493,28.8239984 65.0803481,28.8239984 C64.7866008,28.8239984 64.5714867,28.7289296 64.4236326,28.5341167 C64.0187006,28.0009137 64.1041971,26.7161224 64.6783574,24.7140299 C65.3244838,22.4606287 66.0961098,21.3651956 67.0379444,21.3651956 C67.2773739,21.3651956 67.4681724,21.4610435 67.6224976,21.6581942 C68.087238,22.2539322 68.1299863,23.7604206 67.726623,25.3212618 L67.726623,25.3212618 Z M77.7838404,25.375225 C77.2883134,27.475698 76.4425643,28.6804212 75.4642564,28.6804212 C74.700082,28.6804212 74.3533896,27.9656526 74.2857375,27.8066852 C74.3567232,27.5037511 74.8563681,25.368991 75.1071711,24.3844064 C75.4975922,22.8481116 76.3937372,21.6897539 77.1902669,21.6897539 C77.4312652,21.6897539 77.6277504,21.7819004 77.7718787,21.9634661 C78.0597433,22.32387 78.2952509,23.2081259 77.7838404,25.375225 L77.7838404,25.375225 Z M97.5796242,25.3212618 C97.1619461,26.9370403 96.2185427,28.8239984 94.9333492,28.8239984 C94.6399941,28.8239984 94.4250762,28.7289296 94.2764377,28.5341167 C93.8717018,28.0009137 93.9573944,26.7161224 94.5315547,24.7140299 C95.1776811,22.4606287 95.9491109,21.3651956 96.8915338,21.3651956 C97.1303751,21.3651956 97.3211736,21.4610435 97.475891,21.6581942 C97.9406314,22.2539322 97.9833796,23.7604206 97.5796242,25.3212618 Z M47.7824651,23.3660039 C47.9962253,23.5789884 48.2811735,23.6913534 48.6073049,23.6913534 C49.1956357,23.6913534 49.8245614,23.3227414 49.8245614,22.2873785 C49.8245614,21.7727313 49.631785,21.3083938 49.2666277,20.9442843 C48.7351688,20.4129977 47.8724797,20.1207313 46.8374097,20.1207313 C44.7653085,20.1207313 43.3299774,20.9648389 42.7965574,22.4968393 C42.4000224,23.6353666 43.0089448,24.8504352 44.5105612,25.9186855 L44.7151042,26.0639378 C45.5879911,26.6794002 46.1143511,27.0509485 45.9813883,27.8408312 C45.8752926,28.4684307 45.1957705,28.9188693 44.364263,28.9116263 C43.0918995,28.8998808 42.8818654,28.2411559 42.8475461,28.0142726 C43.0730729,27.9126743 43.6437538,27.5861503 43.6437538,26.8753538 C43.6437538,26.5376716 43.5402076,26.2624362 43.3350762,26.0578693 C43.0203192,25.7440695 42.5818167,25.7102034 42.4076707,25.7102034 C41.9987808,25.7102034 41.2957255,25.8542812 41.1817854,26.8236737 C41.1655082,26.9612915 41.1806087,27.1159401 41.190022,27.1918941 C41.0947124,27.3304907 40.6936669,27.8590367 40.039443,28.0659527 C39.8902031,28.1135218 39.6711479,28.0947291 39.5170052,27.9461489 C39.3095206,27.7453014 39.2718674,27.3622034 39.4109096,26.8663489 C39.5523051,26.364426 41.0609815,20.2706818 41.0609815,20.2706818 L37.9963662,20.2706818 L37.7635833,21.1042184 C37.5274665,20.7226865 36.9422734,20.1207313 35.5991141,20.1207313 C33.537799,20.1207313 31.7990853,22.1333171 30.9356117,23.8561814 C30.2109843,25.3042018 28.8603728,27.998612 27.81334,27.998612 C27.7013611,27.998612 27.6168375,27.9604392 27.5562395,27.8817446 C27.4436722,27.7353178 27.3050222,27.3028888 27.6413513,26.0506262 C27.9166901,25.0234851 30.1090069,16.0458372 30.1090069,16.0458372 L24.8791381,16.0458372 L24.5969354,17.2755876 L26.5611759,17.2755876 L25.2064461,22.6904438 C24.2070681,26.6085359 22.462275,27.998612 21.2714934,27.998612 C21.0222372,27.998612 20.8455419,27.929901 20.7323863,27.7885639 C20.4129226,27.3903925 20.62531,26.4464485 20.7800411,25.756598 C20.996939,24.7934697 21.6866589,22.01782 21.8147189,21.5018025 L23.9811491,21.5018025 L24.2966905,20.2499314 L22.1432036,20.2499314 L22.8894032,17.2058978 L21.713526,17.2055063 L21.6778339,17.2587524 C20.1311121,19.5775034 19.4368818,20.3272558 17.1237611,20.3272558 L17.0302165,20.3272558 L16.7417382,21.5002364 L18.5941959,21.5002364 C18.5133985,21.8858793 18.2984616,22.9167398 18.2996383,22.9118458 C17.2773154,26.7592694 15.3224882,28.3564572 14.502355,28.3564572 C14.0995445,28.3564572 13.8755865,28.2889208 13.7534098,28.1307485 C13.5512201,27.8684331 13.5774989,27.2917306 13.8357761,26.3145077 C14.3034992,24.549947 16.2838207,17.4848527 16.5226831,16.6325232 L18.4969252,16.6325232 L18.8579642,15.4485801 L14.6506143,15.4385965 C13.1378197,15.4385965 11.3567461,15.5662306 9.61450244,16.512328 C7.43512893,17.6964668 5.85918674,19.9147941 4.9290357,23.1093654 C4.92315239,23.1320734 4.34776484,25.3950334 3.83532869,27.0787461 C3.29406432,28.8550523 1.8661854,29.0468949 1.27707012,29.0468949 C0.910932236,29.0468949 0.519103903,28.8689511 0.203758578,28.5588708 L0,28.3597851 L0,29.9575602 L0.0917796096,29.9790935 C0.638927282,30.1100555 1.29079784,30.1754386 2.02895693,30.1754386 C4.05281498,30.1754386 5.84996956,28.7158685 6.77325675,27.4645847 C7.5261241,26.4464485 7.77518415,25.5383281 8.15132366,24.1629339 L8.23447442,23.8579432 L11.2781059,23.8579432 C11.1486731,24.2927213 10.7662581,25.5874633 10.4318901,26.8152562 C10.1457652,27.866867 10.2193065,28.6857218 10.6509453,29.2487212 C11.0757201,29.803303 11.8381969,30.0844112 12.9179801,30.0844112 C14.0118832,30.0844112 15.9880864,29.8166146 17.3300691,28.1037339 C17.3626234,28.5216768 17.4914678,29.0658834 17.8938861,29.481673 C18.2772817,29.8771037 18.8346271,30.0777555 19.5502335,30.0777555 C21.212072,30.0777555 23.0912007,28.9912997 24.0037018,27.8829191 C24.0244895,28.3041899 24.1335268,28.9985428 24.5916404,29.4977251 C24.9452272,29.8825849 25.4388368,30.0777555 26.0593297,30.0777555 C27.9139446,30.0777555 29.6134363,28.5960648 30.3866991,27.3921544 C30.5200541,28.1935867 31.0689667,30.0777555 33.3024667,30.0777555 C34.7315223,30.0777555 35.7883606,29.1772696 36.3678664,28.5234386 C36.4902392,29.0208592 36.9005019,30.0777555 38.1967909,30.0777555 C39.56466,30.0777555 40.9331176,29.1627836 41.5618471,28.4480719 C42.1444907,29.5736792 42.8006757,30.0777555 45.029469,30.0777555 C47.1435378,30.0777555 48.8912726,28.6393272 49.1970085,27.2966246 C49.5278466,25.8421442 48.7253633,25.2521302 47.3957356,24.2737328 L47.2347291,24.1551036 L46.9599786,23.9566052 C46.3035975,23.4842416 45.7356621,23.0768697 45.7356621,22.3770356 C45.7356621,21.6171038 46.3532134,21.2770725 46.9650775,21.2770725 C47.4718264,21.2770725 47.7501069,21.476354 47.8693419,21.5908723 C47.7177487,21.7345585 47.4465282,22.0556013 47.4465282,22.5203303 C47.4465282,22.8492033 47.5657632,23.1496916 47.7824651,23.3660039 Z M11.6277705,22.5796449 L8.54844697,22.5796449 C9.74334689,18.530395 11.1669114,16.7423434 13.2668602,16.6564057 L11.6277705,22.5796449 L11.6277705,22.5796449 Z M36.7863658,24.7934697 C36.1811694,27.113591 35.4610525,28.1479752 34.4524573,28.1479752 C34.2279111,28.1479752 34.0514118,28.0596884 33.9115852,27.8778294 C33.4724943,27.3028888 33.4889676,25.8908879 33.9559061,24.1952339 C34.6093456,21.8193216 35.4367348,21.4988661 36.1601856,21.4988661 C36.3806136,21.4988661 36.5677028,21.595962 36.7157661,21.7870216 C37.1223027,22.3122397 37.1483853,23.4080918 36.7863658,24.7934697 L36.7863658,24.7934697 Z" id="Fill-1" sketch:type="MSShapeGroup"></path>
        </g>
    </g>
</svg>